<?xml version="1.0" encoding="utf-8"?>
<!-- Generator: Adobe Illustrator 22.0.0, SVG Export Plug-In . SVG Version: 6.00 Build 0)  -->
<svg version="1.1" id="圖層_1" xmlns="http://www.w3.org/2000/svg" xmlns:xlink="http://www.w3.org/1999/xlink" x="0px" y="0px"
	 viewBox="0 0 100 45" style="enable-background:new 0 0 100 45;" xml:space="preserve">
<style type="text/css">
	.st0{fill:#DCDDDD;}
</style>
<title>logo</title>
<desc>Created with Sketch.</desc>
<g id="logo">
	<path id="Fill-1" class="st0" d="M7.5,20.3V7.9c0-0.2,0.1-0.4,0.4-0.4h2.8c0.2,0,0.3,0.1,0.4,0.2l2.3,3.7c0,0.1,0.1,0.1,0.1,0.1
		s0.1,0,0.1-0.1l2.3-3.7c0.1-0.2,0.2-0.2,0.4-0.2H19c0.2,0,0.4,0.1,0.4,0.4v12.4c0,0.2-0.1,0.4-0.4,0.4h-2.8c-0.2,0-0.4-0.1-0.4-0.4
		v-6.6c0-0.1,0-0.1-0.1-0.1s-0.1,0-0.1,0.1l-1.2,1.9c-0.1,0.2-0.2,0.2-0.4,0.2h-1.3c-0.2,0-0.3-0.1-0.4-0.2l-1.2-1.9
		c0-0.1-0.1-0.1-0.1-0.1c-0.1,0-0.1,0-0.1,0.1v6.6c0,0.2-0.1,0.4-0.4,0.4H7.8C7.6,20.7,7.5,20.5,7.5,20.3"/>
	<path id="Fill-3" class="st0" d="M30.5,10.5H25c-0.1,0-0.1,0.1-0.1,0.2v1.6c0,0.1,0,0.2,0.1,0.2h3.3c0.2,0,0.4,0.1,0.4,0.4v2.3
		c0,0.2-0.1,0.4-0.4,0.4H25c-0.1,0-0.1,0.1-0.1,0.2v1.8c0,0.1,0,0.2,0.1,0.2h5.5c0.2,0,0.4,0.1,0.4,0.4v2.3c0,0.2-0.1,0.4-0.4,0.4
		h-8.8c-0.2,0-0.4-0.1-0.4-0.4V7.9c0-0.2,0.1-0.4,0.4-0.4h8.8c0.2,0,0.4,0.1,0.4,0.4v2.3C30.8,10.4,30.7,10.5,30.5,10.5"/>
	<path id="Fill-5" class="st0" d="M32.5,20.3V7.9c0-0.2,0.1-0.4,0.4-0.4h2.7c0.2,0,0.3,0.1,0.4,0.2l3.7,6.2c0,0.1,0.1,0.1,0.1,0.1
		c0,0,0.1,0,0.1-0.1l0-6c0-0.2,0.1-0.4,0.4-0.4H43c0.2,0,0.4,0.1,0.4,0.4v12.4c0,0.2-0.1,0.4-0.4,0.4h-2.7c-0.2,0-0.3-0.1-0.4-0.2
		l-3.7-6.3c0-0.1-0.1-0.1-0.1-0.1c0,0-0.1,0-0.1,0.1l0,6.2c0,0.2-0.1,0.4-0.4,0.4h-2.8C32.6,20.7,32.5,20.5,32.5,20.3"/>
	<path id="Fill-7" class="st0" d="M47.6,20.2c-0.8-0.4-1.4-1-1.8-1.7c-0.4-0.8-0.6-1.6-0.6-2.6v-3.5c0-1,0.2-1.8,0.6-2.6
		c0.4-0.7,1-1.3,1.8-1.7c0.8-0.4,1.7-0.6,2.7-0.6c1,0,1.9,0.2,2.7,0.6c0.8,0.4,1.4,0.9,1.8,1.6c0.4,0.7,0.6,1.4,0.6,2.2
		c0,0.2-0.1,0.3-0.4,0.3h-2.8c-0.2,0-0.4,0-0.4-0.1v-0.1c0-0.4-0.1-0.8-0.4-1.1c-0.3-0.3-0.7-0.5-1.2-0.5c-0.5,0-0.9,0.2-1.2,0.5
		c-0.3,0.3-0.4,0.8-0.4,1.3V16c0,0.5,0.2,1,0.5,1.3c0.3,0.3,0.8,0.5,1.3,0.5c0.5,0,0.8-0.1,1.1-0.4c0.3-0.3,0.4-0.6,0.4-1.1v-0.2
		C52,16,52,16,51.9,16h-1.5c-0.2,0-0.4-0.1-0.4-0.4v-2.1c0-0.2,0.1-0.4,0.4-0.4h4.7c0.2,0,0.4,0.1,0.4,0.4V16c0,0.9-0.2,1.8-0.6,2.5
		c-0.4,0.7-1,1.3-1.8,1.7c-0.8,0.4-1.7,0.6-2.7,0.6C49.3,20.8,48.4,20.6,47.6,20.2"/>
	<path id="Fill-9" class="st0" d="M3.2,3.1h93.7V39H94v2.9H3.2V3.1z M0,45h100V0H0V45z"/>
	<path id="Fill-12" class="st0" d="M7.5,37.3V24.9c0-0.2,0.1-0.4,0.4-0.4h2.8c0.2,0,0.4,0.1,0.4,0.4v9.6c0,0.1,0,0.2,0.2,0.2h5.7
		c0.2,0,0.4,0.1,0.4,0.4v2.3c0,0.2-0.1,0.4-0.4,0.4h-9C7.6,37.6,7.5,37.5,7.5,37.3"/>
	<path id="Fill-14" class="st0" d="M18.8,37.3V24.9c0-0.2,0.1-0.4,0.4-0.4h2.8c0.2,0,0.4,0.1,0.4,0.4v12.4c0,0.2-0.1,0.4-0.4,0.4
		h-2.8C18.9,37.6,18.8,37.5,18.8,37.3"/>
	<path id="Fill-16" class="st0" d="M24.2,37.3V24.9c0-0.2,0.1-0.4,0.4-0.4h2.7c0.2,0,0.3,0.1,0.4,0.2l3.7,6.2c0,0.1,0.1,0.1,0.1,0.1
		c0.1,0,0.1,0,0.1-0.1l0-6c0-0.2,0.1-0.4,0.4-0.4h2.8c0.2,0,0.4,0.1,0.4,0.4v12.4c0,0.2-0.1,0.4-0.4,0.4H32c-0.2,0-0.3-0.1-0.4-0.2
		l-3.7-6.3c0-0.1-0.1-0.1-0.1-0.1c0,0-0.1,0-0.1,0.1l0,6.2c0,0.2-0.1,0.4-0.4,0.4h-2.8C24.3,37.6,24.2,37.5,24.2,37.3"/>
	<path id="Fill-18" class="st0" d="M66,37.2c-0.4-0.3-0.6-0.6-0.6-1c0-0.1,0-0.1,0-0.2l0-0.1c0-0.1,0.1-0.2,0.2-0.2h0.9
		c0.1,0,0.1,0,0.1,0c0,0,0,0,0,0.1V36c0,0.2,0,0.3,0.2,0.5c0.2,0.1,0.4,0.2,0.7,0.2c0.3,0,0.5-0.1,0.7-0.2c0.2-0.1,0.3-0.3,0.3-0.5
		c0-0.1-0.1-0.3-0.2-0.3c-0.1-0.1-0.3-0.2-0.6-0.2l-0.4-0.1c-0.5-0.2-0.9-0.3-1.2-0.5c-0.3-0.2-0.4-0.5-0.4-0.9c0-0.1,0-0.2,0-0.2
		c0.1-0.5,0.3-0.9,0.7-1.2c0.4-0.3,0.9-0.4,1.6-0.4c0.6,0,1.1,0.1,1.4,0.4c0.4,0.3,0.5,0.6,0.5,1.1c0,0.1,0,0.2,0,0.2
		c0,0.1-0.1,0.1-0.2,0.1h-0.8c-0.1,0-0.2,0-0.2-0.1l0-0.1c0-0.2,0-0.3-0.2-0.5c-0.2-0.1-0.4-0.2-0.7-0.2c-0.3,0-0.5,0.1-0.7,0.2
		c-0.2,0.1-0.3,0.3-0.3,0.4c0,0.2,0,0.3,0.2,0.4c0.2,0.1,0.4,0.2,0.8,0.3l0.2,0.1c0.5,0.2,0.9,0.3,1.2,0.6c0.3,0.2,0.4,0.5,0.4,0.9
		c0,0.1,0,0.2,0,0.2c-0.1,0.5-0.3,0.9-0.7,1.2c-0.4,0.3-1,0.4-1.6,0.4C66.9,37.6,66.4,37.5,66,37.2"/>
	<path id="Fill-20" class="st0" d="M73.8,32.9c0,0-0.1,0-0.1,0h-1c0,0-0.1,0-0.1,0.1l-0.3,2.6c0,0,0,0.1,0,0.2
		c0,0.2,0.1,0.4,0.2,0.4c0.1,0.1,0.3,0.1,0.5,0.1h0.3c0.1,0,0.1,0,0.1,0c0,0,0,0.1,0,0.1l-0.1,0.7c0,0.1-0.1,0.2-0.2,0.2l-0.5,0
		c-0.5,0-0.9-0.1-1.1-0.2c-0.3-0.2-0.4-0.5-0.4-0.9c0-0.1,0-0.1,0-0.3l0.4-3.1c0,0,0-0.1-0.1-0.1h-0.6c-0.1,0-0.1,0-0.1,0
		c0,0,0-0.1,0-0.1l0.1-0.7c0-0.1,0.1-0.2,0.2-0.2h0.5c0,0,0.1,0,0.1-0.1l0.2-1.2c0,0,0-0.1,0.1-0.1c0,0,0.1,0,0.1,0h0.8
		c0.1,0,0.1,0,0.1,0c0,0,0,0.1,0,0.1l-0.1,1.2c0,0,0,0,0,0c0,0,0,0,0,0h1c0.1,0,0.1,0,0.1,0.1c0,0,0,0.1,0,0.1l-0.1,0.7
		C73.9,32.9,73.9,32.9,73.8,32.9"/>
	<path id="Fill-22" class="st0" d="M78.2,32h0.9c0.1,0,0.2,0.1,0.2,0.2l-0.6,5.2c0,0,0,0.1-0.1,0.1c0,0-0.1,0-0.1,0h-0.9
		c-0.1,0-0.1,0-0.1,0c0,0,0-0.1,0-0.1l0-0.3c0,0,0,0,0-0.1c0,0,0,0-0.1,0c-0.3,0.4-0.8,0.6-1.4,0.6c-0.5,0-0.9-0.1-1.2-0.4
		c-0.3-0.3-0.5-0.7-0.5-1.2c0-0.1,0-0.2,0-0.3l0.4-3.6c0-0.1,0.1-0.2,0.2-0.2h0.9c0.1,0,0.1,0,0.1,0.1c0,0,0,0.1,0,0.1l-0.4,3.3
		c0,0,0,0.1,0,0.2c0,0.3,0.1,0.5,0.2,0.7c0.1,0.2,0.4,0.2,0.6,0.2c0.3,0,0.6-0.1,0.8-0.3c0.2-0.2,0.3-0.5,0.4-0.8l0.4-3.3
		C78,32,78.1,32,78.2,32"/>
	<path id="Fill-24" class="st0" d="M83.2,34.8c0-0.2,0-0.4,0-0.5c0-0.3,0-0.6-0.1-0.8c-0.1-0.3-0.4-0.5-0.7-0.5
		c-0.4,0-0.7,0.2-0.9,0.5c-0.2,0.3-0.4,0.8-0.5,1.3c0,0.2,0,0.3,0,0.5c0,0.3,0,0.6,0.1,0.8c0.1,0.3,0.4,0.5,0.8,0.5
		c0.3,0,0.6-0.2,0.9-0.5C83,35.7,83.1,35.3,83.2,34.8 M84,29.9h0.9c0.1,0,0.2,0.1,0.2,0.2l-0.9,7.3c0,0,0,0.1-0.1,0.1
		c0,0-0.1,0-0.1,0H83c-0.1,0-0.2-0.1-0.2-0.2l0-0.3c0,0,0,0,0-0.1c0,0,0,0-0.1,0c-0.3,0.4-0.8,0.6-1.3,0.6c-0.5,0-0.9-0.1-1.2-0.4
		c-0.3-0.3-0.5-0.6-0.6-1.1c0-0.2-0.1-0.5-0.1-0.7c0-0.2,0-0.4,0-0.6c0.1-0.5,0.2-1,0.3-1.3c0.2-0.5,0.5-0.9,0.9-1.1
		c0.4-0.3,0.8-0.4,1.3-0.4c0.5,0,0.9,0.2,1.1,0.5c0,0,0,0,0,0c0,0,0,0,0,0l0.3-2.3C83.8,30,83.9,29.9,84,29.9"/>
	<path id="Fill-26" class="st0" d="M86.1,31.1c-0.1-0.1-0.2-0.3-0.2-0.5c0-0.3,0.1-0.5,0.3-0.7c0.2-0.2,0.4-0.3,0.6-0.3
		c0.2,0,0.4,0.1,0.5,0.2c0.1,0.1,0.2,0.3,0.2,0.5c0,0.3-0.1,0.5-0.3,0.7c-0.2,0.2-0.4,0.3-0.6,0.3C86.4,31.3,86.2,31.2,86.1,31.1
		 M85.2,37.4l0.6-5.2c0-0.1,0.1-0.2,0.2-0.2H87c0.1,0,0.2,0.1,0.2,0.2l-0.6,5.2c0,0,0,0.1-0.1,0.1c0,0-0.1,0-0.1,0h-0.9
		C85.3,37.6,85.2,37.5,85.2,37.4"/>
	<path id="Fill-28" class="st0" d="M90.7,36.3c0.2-0.2,0.4-0.4,0.5-0.6c0.1-0.2,0.2-0.5,0.2-0.9c0-0.2,0-0.4,0-0.5
		c0-0.1,0-0.2,0-0.4c0-0.3-0.2-0.5-0.3-0.6C90.9,33,90.7,33,90.4,33c-0.3,0-0.5,0.1-0.7,0.2c-0.2,0.1-0.4,0.4-0.5,0.6
		c-0.1,0.3-0.2,0.6-0.2,0.9c0,0.2,0,0.4,0,0.5c0,0.1,0,0.2,0,0.4c0.1,0.3,0.2,0.5,0.3,0.6c0.2,0.2,0.4,0.2,0.7,0.2
		C90.3,36.5,90.5,36.5,90.7,36.3 M88.5,37.2c-0.4-0.3-0.6-0.7-0.7-1.2c0-0.2-0.1-0.4-0.1-0.6c0-0.1,0-0.3,0-0.6
		c0.1-0.5,0.2-0.9,0.3-1.2c0.2-0.5,0.6-0.9,1-1.2c0.4-0.3,0.9-0.4,1.5-0.4c0.5,0,1,0.1,1.3,0.4c0.4,0.3,0.6,0.7,0.7,1.2
		c0,0.2,0.1,0.4,0.1,0.7c0,0.2,0,0.4,0,0.5c-0.1,0.5-0.2,0.9-0.3,1.2c-0.2,0.5-0.6,0.9-1,1.2c-0.4,0.3-0.9,0.4-1.5,0.4
		C89.3,37.6,88.9,37.5,88.5,37.2"/>
</g>
</svg>
