<?xml version="1.0" encoding="utf-8"?>
<!-- Generator: Adobe Illustrator 22.0.0, SVG Export Plug-In . SVG Version: 6.00 Build 0)  -->
<svg version="1.1" id="圖層_1" xmlns="http://www.w3.org/2000/svg" xmlns:xlink="http://www.w3.org/1999/xlink" x="0px" y="0px"
	 viewBox="0 0 100 45" style="enable-background:new 0 0 100 45;" xml:space="preserve">
<style type="text/css">
	.st0{fill:#333333;}
</style>
<title>logo</title>
<desc>Created with Sketch.</desc>
<g>
	<path class="st0" d="M19.7,11.5l-4.9,4.7l-0.1,1.1h11.2l-1.6,15h-3.9l1.4-13.7h-1.3l-2.9,5.1l-1.9-5.1h-1.3l-1.6,14.8h1.3l1.3-12.1
		l1.5,4H18l2.3-4L19,33.5h6.5l4.5-4.4l1.8-17.5H19.7V11.5z M16.6,16.2l3.7-3.6h9.8l-3.7,3.6H16.6z M28.8,28.5l-3.2,3l1.6-14.4l3.1-3
		L28.8,28.5z"/>
	<path class="st0" d="M22.5,1.1c11.8,0,21.4,9.6,21.4,21.4s-9.6,21.4-21.4,21.4S1.1,34.3,1.1,22.5S10.7,1.1,22.5,1.1 M22.5,0
		C10.1,0,0,10.1,0,22.5S10.1,45,22.5,45S45,34.9,45,22.5S34.9,0,22.5,0L22.5,0z"/>
</g>
<g>
	<path class="st0" d="M59.2,19.4v-4.1L57.9,18H57l-1.3-2.7v4.1h-1.4v-7h1.3l1.9,3.8l1.9-3.8h1.3v7C60.7,19.4,59.2,19.4,59.2,19.4z"
		/>
	<path class="st0" d="M63,19.4v-7h4.6v1.2h-3.3v1.6h2.8v1.2h-2.8v1.8h3.3v1.2H63L63,19.4z"/>
	<path class="st0" d="M73.8,19.4L71,15.1v4.3h-1.4v-7h1.2l2.8,4.3v-4.3H75v7C75,19.4,73.8,19.4,73.8,19.4z"/>
	<path class="st0" d="M81.8,18.7c-0.6,0.6-1.2,0.8-2,0.8s-1.4-0.2-1.9-0.8c-0.7-0.7-0.7-1.5-0.7-2.8c0-1.2,0-2.1,0.7-2.8
		c0.5-0.5,1.1-0.8,1.9-0.8c1.6,0,2.5,1.1,2.6,2.2h-1.3c-0.1-0.7-0.6-1.1-1.3-1.1c-0.4,0-0.7,0.1-0.8,0.4c-0.2,0.4-0.4,0.6-0.4,2
		c0,1.3,0.1,1.6,0.4,2c0.2,0.2,0.5,0.4,0.8,0.4c0.5,0,0.7-0.1,0.9-0.4c0.2-0.2,0.4-0.6,0.4-0.9v-0.2h-1.3v-1.2h2.7v1.1
		C82.4,17.5,82.3,18.1,81.8,18.7z"/>
	<path class="st0" d="M84.6,19.4v-7H86v5.8h3.2v1.2L84.6,19.4L84.6,19.4z"/>
	<path class="st0" d="M91,19.4v-7h1.4v7H91z"/>
	<path class="st0" d="M98.8,19.4L96,15.1v4.3h-1.4v-7h1.2l2.8,4.3v-4.3h1.4v7C100,19.4,98.8,19.4,98.8,19.4z"/>
	<path class="st0" d="M55.8,34.2c-0.8,0-1.5-0.1-2.2-0.7l0.8-0.8c0.5,0.5,0.9,0.5,1.4,0.5s0.9-0.1,0.9-0.6c0-0.2-0.1-0.5-0.6-0.5
		L55.4,32c-0.9-0.1-1.5-0.5-1.5-1.4c0-1.1,0.9-1.6,2-1.6c0.8,0,1.4,0.1,2,0.6L57,30.3c-0.4-0.2-0.7-0.4-1.2-0.4s-0.7,0.2-0.7,0.5
		c0,0.2,0.1,0.4,0.6,0.5l0.8,0.1c1.1,0.1,1.5,0.6,1.5,1.5C58.1,33.8,57,34.2,55.8,34.2z"/>
	<path class="st0" d="M61.4,34.2c-1.1,0-1.5-0.7-1.5-1.4v-2.6h-0.6v-0.9h0.6v-1.6h1.3v1.5h0.9v0.9h-0.9v2.5c0,0.4,0.1,0.5,0.5,0.5
		h0.5v1.1L61.4,34.2L61.4,34.2L61.4,34.2z"/>
	<path class="st0" d="M66.9,34.2v-0.5c-0.4,0.4-0.8,0.6-1.3,0.6s-0.9-0.1-1.2-0.5c-0.5-0.5-0.5-0.9-0.5-1.4v-3.3h1.3v3.1
		c0,0.7,0.5,0.9,0.8,0.9c0.4,0,0.8-0.2,0.8-0.9v-3.1h1.3v5.2L66.9,34.2L66.9,34.2L66.9,34.2z"/>
	<path class="st0" d="M73.2,34.2v-0.5c-0.4,0.4-0.7,0.6-1.3,0.6c-0.5,0-0.9-0.2-1.3-0.5c-0.5-0.5-0.5-1.4-0.5-2.1
		c0-0.8,0-1.6,0.5-2.1c0.2-0.2,0.7-0.5,1.3-0.5c0.5,0,0.9,0.1,1.3,0.5v-2.3h1.3v7L73.2,34.2L73.2,34.2z M72.3,30.1
		c-0.8,0-0.8,0.6-0.8,1.4s0.1,1.5,0.8,1.5c0.8,0,0.8-0.6,0.8-1.5C73.1,30.8,73,30.1,72.3,30.1z"/>
	<path class="st0" d="M76.6,28.2v-1.1h1.3v1.1H76.6z M76.6,34.2V29h1.3v5.2H76.6z"/>
	<path class="st0" d="M83.6,33.6c-0.4,0.4-0.8,0.6-1.6,0.6c-0.7,0-1.3-0.4-1.5-0.6c-0.5-0.5-0.6-1.1-0.6-2s0.1-1.5,0.6-2
		c0.4-0.4,0.8-0.6,1.5-0.6s1.3,0.4,1.6,0.6c0.5,0.5,0.6,1.1,0.6,2C84.1,32.6,84,33.2,83.6,33.6z M82.6,30.3
		c-0.1-0.1-0.4-0.2-0.6-0.2s-0.5,0.1-0.6,0.2C81,30.5,81,31,81,31.6s0,0.9,0.4,1.3c0.1,0.1,0.4,0.2,0.6,0.2s0.5-0.1,0.6-0.2
		c0.2-0.2,0.4-0.7,0.4-1.3C82.8,31.1,82.8,30.6,82.6,30.3z"/>
</g>
</svg>
