<?xml version="1.0" encoding="utf-8"?>
<!-- Generator: Adobe Illustrator 18.0.0, SVG Export Plug-In . SVG Version: 6.00 Build 0)  -->
<!DOCTYPE svg PUBLIC "-//W3C//DTD SVG 1.1//EN" "http://www.w3.org/Graphics/SVG/1.1/DTD/svg11.dtd">
<svg version="1.1" id="圖層_1" xmlns="http://www.w3.org/2000/svg" xmlns:xlink="http://www.w3.org/1999/xlink" x="0px" y="0px"
	 viewBox="348.7 0 842 842" enable-background="new 348.7 0 842 842" xml:space="preserve">
<path d="M769.7,0c-232.6,0-421,188.4-421,421s188.4,421,421,421s421-188.4,421-421S1002.1,0,769.7,0z"/>
<g>
	<path fill="#FFFFFF" d="M617.6,296.6l-2,21.7h221.1l-31.5,296.2h-77L755.9,344h-25.7L673,444.7L635.5,344h-25.7l-31.5,292.3H604
		l25.7-239l29.7,79h21.7l45.4-79l-25.7,240.8h128.4l88.9-86.9l35.5-345.5H714.3L617.6,296.6z M653,296.6l73.1-71.2h193.6l-73.1,71.2
		H653z M894.1,539.5l-63.2,59.2l31.5-284.3l61.2-59.2L894.1,539.5z"/>
</g>
<path d="M2815.9,0c-232.6,0-421,188.4-421,421s188.4,421,421,421s421-188.4,421-421S3048.2,0,2815.9,0z"/>
<g>
	<path fill="#FFFFFF" d="M2678.8,308.9l-1.8,19.6h199.2l-28.4,267h-69.4l25-243.8h-23.1l-51.6,90.7l-33.8-90.7h-23.2L2643.4,615
		h23.2l23.2-215.4l26.8,71.1h19.6l41-71.1l-23.2,217h115.7l80.1-78.3l32-311.4h-215.7L2678.8,308.9z M2710.8,308.9l65.9-64.1H2951
		l-65.9,64.1H2710.8z M2927.9,527.7l-56.9,53.4l28.4-256.2l55.2-53.4L2927.9,527.7z"/>
	<path fill="#FFFFFF" d="M2815.9,20.6c-221.2,0-400.4,179.2-400.4,400.4s179.2,400.4,400.4,400.4s400.4-179.2,400.4-400.4
		S3036.8,20.6,2815.9,20.6z M2815.7,801.9c-210.3,0-380.9-170.5-380.9-380.9s170.5-380.9,380.9-380.9s380.9,170.5,380.9,380.9
		S3025.9,801.9,2815.7,801.9z"/>
</g>
<title>logo</title>
<desc>Created with Sketch.</desc>

<g>
	<path fill="#333333" d="M1457.7,363v-76.4l-25,49.7h-17.3l-25.1-49.7V363h-25.6V232.1h25.1l34.3,70.7l33.9-70.7h25.1V363H1457.7z"
		/>
	<path fill="#333333" d="M1527.5,363V232.1h86.3v22.8h-60.7v30.6h51.7v22.8h-51.7V340h60.7v23H1527.5z"/>
	<path fill="#333333" d="M1730,363l-51.9-80.3V363h-25.6V232.1h22.8l51.9,80.2v-80.2h25.6V363H1730z"/>
	<path fill="#333333" d="M1877.8,349.2c-10.5,10.8-22.9,14.9-36.9,14.9c-14.3,0-26.1-5.2-35.4-14.3c-13.2-13.2-12.9-29.5-12.9-52.2
		c0-22.7-0.3-39,12.9-52.2c9.3-9.3,20.6-14.3,35.4-14.3c30.3,0,45.7,19.8,49.3,42h-25.8c-3-12.3-10.5-19.2-23.6-19.2
		c-6.9,0-12.7,2.8-16.3,6.9c-5,5.5-6.3,11.6-6.3,36.8c0,25.2,1.3,31.4,6.3,36.9c3.6,4.2,9.4,6.8,16.3,6.8c7.7,0,14-2.8,18.2-7.4
		c4.2-4.7,5.8-10.7,5.8-17.4v-5h-24v-21.4h49.5v19.2C1890.3,328.1,1887,339.6,1877.8,349.2z"/>
	<path fill="#333333" d="M1930.1,363V232.1h25.6v108.1h59.4V363H1930.1z"/>
	<path fill="#333333" d="M2049.5,363V232.1h25.6V363H2049.5z"/>
	<path fill="#333333" d="M2196.8,363l-51.9-80.3V363h-25.6V232.1h22.8l51.9,80.2v-80.2h25.6V363H2196.8z"/>
</g>
<g>
	<path fill="#333333" d="M1393.6,640.1c-15.1,0-28.8-1.7-41-13.8l15.7-15.7c8,8,18.2,9.1,25.6,9.1c8.3,0,17-2.8,17-9.9
		c0-4.9-2.5-8.2-10.2-8.8l-15.1-1.4c-17.4-1.7-28.1-9.3-28.1-27c0-20,17.6-30.6,37.1-30.6c14.9,0,27.5,2.5,36.8,11.3l-14.8,14.9
		c-5.5-5-14-6.4-22.3-6.4c-9.6,0-13.7,4.4-13.7,9.3c0,3.5,1.4,7.5,9.9,8.3l15.1,1.4c19,1.9,28.6,11.9,28.6,28.3
		C1434.4,630,1416.4,640.1,1393.6,640.1z"/>
	<path fill="#333333" d="M1496.7,639c-19.6,0-28-13.8-28-27.5v-47.6h-10.2v-18.2h10.2V517h24v28.4h17v18.2h-17v46.2
		c0,5.5,2.5,8.6,8.3,8.6h8.6v20.3h-13L1496.7,639L1496.7,639z"/>
	<path fill="#333333" d="M1600.9,639v-8.8c-6.3,6.6-15.1,9.9-24,9.9c-9.6,0-17.4-3.1-22.8-8.5c-7.7-7.7-9.7-16.8-9.7-27.3v-61.6h24
		v58.1c0,13,8.3,17.6,15.9,17.6c7.5,0,16-4.4,16-17.6v-58.1h24V639H1600.9L1600.9,639z"/>
	<path fill="#333333" d="M1718.4,639v-9.1c-6.6,7.4-13.7,10.2-23.9,10.2c-9.4,0-18.2-3.3-23.6-8.6c-9.6-9.6-9.7-26.2-9.7-40.7
		s0.2-30.8,9.7-40.4c5.3-5.3,14-8.6,23.4-8.6c9.7,0,17.1,2.5,23.4,9.6v-43.8h24V639H1718.4L1718.4,639z M1701.4,563.3
		c-14.5,0-16.2,11.8-16.2,27.5s1.9,27.7,16.2,27.7c14.5,0,16.5-11.9,16.5-27.7C1717.9,575.2,1715.9,563.3,1701.4,563.3z"/>
	<path fill="#333333" d="M1782.4,526.3v-19.6h24.5v19.6H1782.4z M1782.7,639v-96.3h24V639H1782.7z"/>
	<path fill="#333333" d="M1913.9,628.3c-6,6.3-15.7,11.8-29.9,11.8c-14.3,0-23.9-5.5-29.7-11.8c-8.6-9.1-10.8-20-10.8-37.6
		c0-17.4,2.2-28.3,10.8-37.4c6-6.3,15.6-11.8,29.7-11.8c14.3,0,24,5.5,29.9,11.8c8.6,9.1,10.8,20,10.8,37.4
		C1924.8,608.4,1922.6,619.4,1913.9,628.3z M1895.2,567.5c-2.8-2.8-6.4-4.2-11.3-4.2c-4.9,0-8.3,1.4-11.2,4.2
		c-5,5-5.5,13.4-5.5,23.3s0.6,18.5,5.5,23.4c2.8,2.8,6.3,4.2,11.2,4.2c4.9,0,8.5-1.4,11.3-4.2c5-5,5.5-13.5,5.5-23.4
		C1900.9,580.9,1900.2,572.5,1895.2,567.5z"/>
</g>
</svg>
