<?xml version="1.0" encoding="UTF-8"?>
<svg width="100px" height="45px" viewBox="0 0 100 45" version="1.1" xmlns="http://www.w3.org/2000/svg" xmlns:xlink="http://www.w3.org/1999/xlink">
    <!-- Generator: Sketch 49.3 (51167) - http://www.bohemiancoding.com/sketch -->
    <title>logo</title>
    <desc>Created with Sketch.</desc>
    <defs></defs>
    <g id="logo" stroke="none" stroke-width="1" fill="none" fill-rule="evenodd">
        <path d="M7.45546875,20.2940625 L7.45546875,7.8815625 C7.45546875,7.6425 7.57421875,7.52375 7.81171875,7.52375 L10.6054688,7.52375 C10.8054688,7.52375 10.9492188,7.6065625 11.0367188,7.7675 L13.3054688,11.4628125 C13.3304688,11.5128125 13.3679688,11.5378125 13.4179688,11.5378125 C13.4679688,11.5378125 13.5054688,11.5128125 13.5304688,11.4628125 L15.7992188,7.7675 C15.8867188,7.6065625 16.0304688,7.52375 16.2304688,7.52375 L19.0242188,7.52375 C19.2617188,7.52375 19.3804688,7.6425 19.3804688,7.8815625 L19.3804688,20.2940625 C19.3804688,20.53 19.2617188,20.6503125 19.0242188,20.6503125 L16.2117188,20.6503125 C15.9742188,20.6503125 15.8554688,20.53 15.8554688,20.2940625 L15.8554688,13.6753125 C15.8554688,13.6003125 15.8335938,13.5565625 15.7898438,13.5440625 C15.7460938,13.5315625 15.7054688,13.5565625 15.6679688,13.6190625 L14.5054688,15.5503125 C14.4179688,15.71125 14.2742188,15.7925 14.0742188,15.7925 L12.7617188,15.7925 C12.5617188,15.7925 12.4179688,15.71125 12.3304688,15.5503125 L11.1679688,13.6190625 C11.1304688,13.5675 11.0929688,13.5440625 11.0554688,13.5440625 C11.0039063,13.5440625 10.9804688,13.5878125 10.9804688,13.6753125 L10.9804688,20.2940625 C10.9804688,20.53 10.8617188,20.6503125 10.6242188,20.6503125 L7.81171875,20.6503125 C7.57421875,20.6503125 7.45546875,20.53 7.45546875,20.2940625" id="Fill-1" fill="#35464D"></path>
        <path d="M30.4610937,10.54375 L24.9860937,10.54375 C24.8860937,10.54375 24.8360937,10.59375 24.8360937,10.69375 L24.8360937,12.3421875 C24.8360937,12.44375 24.8860937,12.49375 24.9860937,12.49375 L28.3235937,12.49375 C28.5610937,12.49375 28.6798437,12.6125 28.6798437,12.85 L28.6798437,15.1359375 C28.6798437,15.375 28.5610937,15.49375 28.3235937,15.49375 L24.9860937,15.49375 C24.8860937,15.49375 24.8360937,15.54375 24.8360937,15.64375 L24.8360937,17.4796875 C24.8360937,17.58125 24.8860937,17.63125 24.9860937,17.63125 L30.4610937,17.63125 C30.6985937,17.63125 30.8189062,17.75 30.8189062,17.9875 L30.8189062,20.29375 C30.8189062,20.53125 30.6985937,20.65 30.4610937,20.65 L21.6673437,20.65 C21.4298437,20.65 21.3110937,20.53125 21.3110937,20.29375 L21.3110937,7.88125 C21.3110937,7.64375 21.4298437,7.5234375 21.6673437,7.5234375 L30.4610937,7.5234375 C30.6985937,7.5234375 30.8189062,7.64375 30.8189062,7.88125 L30.8189062,10.1859375 C30.8189062,10.425 30.6985937,10.54375 30.4610937,10.54375" id="Fill-3" fill="#35464D"></path>
        <path d="M32.4676562,20.2940625 L32.4676562,7.8815625 C32.4676562,7.6425 32.5864062,7.52375 32.8254687,7.52375 L35.5239062,7.52375 C35.7239062,7.52375 35.8676562,7.6065625 35.9551562,7.7675 L39.6504687,13.97375 C39.6864062,14.02375 39.7254687,14.0503125 39.7614062,14.0503125 C39.8114062,14.0503125 39.8364062,14.0065625 39.8364062,13.9190625 L39.8176562,7.8815625 C39.8176562,7.6425 39.9364062,7.52375 40.1754687,7.52375 L42.9848437,7.52375 C43.2223437,7.52375 43.3410937,7.6425 43.3410937,7.8815625 L43.3410937,20.2940625 C43.3410937,20.53 43.2223437,20.6503125 42.9848437,20.6503125 L40.2864062,20.6503125 C40.0864062,20.6503125 39.9426562,20.5690625 39.8567187,20.405 L36.1442187,14.08625 C36.1051562,14.02375 36.0645312,13.9971875 36.0207812,14.0034375 C35.9770312,14.0096875 35.9551562,14.0503125 35.9551562,14.1253125 L35.9926562,20.2940625 C35.9926562,20.53 35.8739062,20.6503125 35.6364062,20.6503125 L32.8254687,20.6503125 C32.5864062,20.6503125 32.4676562,20.53 32.4676562,20.2940625" id="Fill-5" fill="#35464D"></path>
        <path d="M47.5707813,20.18125 C46.7879688,19.7671875 46.1817188,19.1875 45.7520313,18.4375 C45.3207813,17.6859375 45.1051563,16.825 45.1051563,15.85 L45.1051563,12.30625 C45.1051563,11.33125 45.3207813,10.471875 45.7520313,9.728125 C46.1817188,8.984375 46.7879688,8.40625 47.5707813,7.99375 C48.3504688,7.58125 49.2535938,7.375 50.2785938,7.375 C51.2785938,7.375 52.1723438,7.571875 52.9598438,7.965625 C53.7473438,8.359375 54.3582813,8.8921875 54.7879688,9.56875 C55.2207813,10.24375 55.4348438,10.98125 55.4348438,11.78125 C55.4348438,11.98125 55.3160938,12.0796875 55.0801563,12.0796875 L52.2864063,12.0796875 C52.0473438,12.0796875 51.9285938,12.05 51.9285938,11.9875 L51.9285938,11.9125 C51.9285938,11.4984375 51.7817188,11.14375 51.4895313,10.8421875 C51.1942188,10.54375 50.7926563,10.3921875 50.2785938,10.3921875 C49.7785938,10.3921875 49.3785938,10.559375 49.0801563,10.890625 C48.7785938,11.221875 48.6301563,11.6625 48.6301563,12.2109375 L48.6301563,15.9625 C48.6301563,16.5 48.8004688,16.9375 49.1457813,17.275 C49.4895313,17.6109375 49.9160938,17.78125 50.4285938,17.78125 C50.8910938,17.78125 51.2692188,17.653125 51.5645313,17.396875 C51.8567188,17.140625 52.0051563,16.7875 52.0051563,16.3375 L52.0051563,16.15 C52.0051563,16.0484375 51.9551563,16 51.8535938,16 L50.3364063,16 C50.0973438,16 49.9801563,15.88125 49.9801563,15.64375 L49.9801563,13.54375 C49.9801563,13.30625 50.0973438,13.1859375 50.3364063,13.1859375 L55.0801563,13.1859375 C55.3160938,13.1859375 55.4348438,13.30625 55.4348438,13.54375 L55.4348438,16.0375 C55.4348438,16.9609375 55.2207813,17.7875 54.7879688,18.5125 C54.3582813,19.2375 53.7504688,19.8 52.9692188,20.2 C52.1879688,20.6 51.2926563,20.8 50.2785938,20.8 C49.2535938,20.8 48.3504688,20.59375 47.5707813,20.18125" id="Fill-7" fill="#35464D"></path>
        <path d="M3.17153233,3.11031241 L96.8284677,3.11031241 L96.8284677,39.0375311 L94.0042181,39.0375311 L94.0042181,41.8896876 L3.17153233,41.8896876 L3.17153233,3.11031241 Z M0,45 L100,45 L100,0 L0,0 L0,45 Z" id="Fill-9" fill="#35464D"></path>
        <path d="M7.53015625,37.28625 L7.53015625,24.87375 C7.53015625,24.6346875 7.64890625,24.5159375 7.88796875,24.5159375 L10.6989063,24.5159375 C10.9364063,24.5159375 11.0551563,24.6346875 11.0551563,24.87375 L11.0551563,34.4721875 C11.0551563,34.57375 11.1051563,34.62375 11.2067188,34.62375 L16.8692188,34.62375 C17.1051563,34.62375 17.2239062,34.7425 17.2239062,34.9784375 L17.2239062,37.28625 C17.2239062,37.5221875 17.1051563,37.6425 16.8692188,37.6425 L7.88796875,37.6425 C7.64890625,37.6425 7.53015625,37.5221875 7.53015625,37.28625" id="Fill-12" fill="#35464D"></path>
        <path d="M18.760625,37.28625 L18.760625,24.87375 C18.760625,24.6346875 18.879375,24.5159375 19.1184375,24.5159375 L21.929375,24.5159375 C22.166875,24.5159375 22.285625,24.6346875 22.285625,24.87375 L22.285625,37.28625 C22.285625,37.5221875 22.166875,37.6425 21.929375,37.6425 L19.1184375,37.6425 C18.879375,37.6425 18.760625,37.5221875 18.760625,37.28625" id="Fill-14" fill="#35464D"></path>
        <path d="M24.2171875,37.28625 L24.2171875,24.87375 C24.2171875,24.6346875 24.3359375,24.5159375 24.575,24.5159375 L27.2734375,24.5159375 C27.4734375,24.5159375 27.6171875,24.59875 27.7046875,24.7596875 L31.4,30.9659375 C31.4359375,31.0159375 31.475,31.0425 31.5109375,31.0425 C31.5609375,31.0425 31.5859375,30.99875 31.5859375,30.91125 L31.5671875,24.87375 C31.5671875,24.6346875 31.6859375,24.5159375 31.925,24.5159375 L34.7359375,24.5159375 C34.9734375,24.5159375 35.0921875,24.6346875 35.0921875,24.87375 L35.0921875,37.28625 C35.0921875,37.5221875 34.9734375,37.6425 34.7359375,37.6425 L32.0359375,37.6425 C31.8359375,37.6425 31.6921875,37.56125 31.60625,37.3971875 L27.89375,31.0784375 C27.8546875,31.0159375 27.8140625,30.989375 27.7703125,30.995625 C27.7265625,31.001875 27.7046875,31.0425 27.7046875,31.1175 L27.7421875,37.28625 C27.7421875,37.5221875 27.6234375,37.6425 27.3859375,37.6425 L24.575,37.6425 C24.3359375,37.6425 24.2171875,37.5221875 24.2171875,37.28625" id="Fill-16" fill="#35464D"></path>
        <path d="M65.9923438,37.2314063 C65.6251563,36.9720313 65.4392188,36.6392188 65.4392188,36.2298438 C65.4392188,36.1579688 65.4423438,36.1032813 65.4501563,36.0673438 L65.4610938,36.0126563 C65.4767188,35.8970313 65.5376563,35.8376563 65.6470313,35.8376563 L66.5001563,35.8376563 C66.5501563,35.8376563 66.5923437,35.8439063 66.6204688,35.8595313 C66.6501562,35.8735938 66.6610937,35.8923438 66.6532812,35.9142188 L66.6532812,35.9907813 C66.6235937,36.1720313 66.6985937,36.3314063 66.8767187,36.4657813 C67.0564062,36.6017188 67.2939062,36.6689063 67.5923437,36.6689063 C67.8923437,36.6689063 68.1376562,36.6017188 68.3314062,36.4657813 C68.5235937,36.3314063 68.6220312,36.1642188 68.6220312,35.9673438 C68.6220312,35.8235938 68.5564062,35.7110938 68.4251562,35.6360938 C68.2939062,35.5595313 68.0814062,35.4767188 67.7892187,35.3892188 L67.3954687,35.2579688 C66.9001562,35.1064063 66.5110938,34.9220313 66.2267188,34.7126563 C65.9439062,34.5001563 65.8001563,34.1907813 65.8001563,33.7829688 C65.8001563,33.6876563 65.8048438,33.6173438 65.8126563,33.5751563 C65.8782813,33.0579688 66.1204688,32.6485938 66.5454687,32.3501563 C66.9657812,32.0517188 67.4954687,31.9032813 68.1282812,31.9032813 C68.7267187,31.9032813 69.2048437,32.0376563 69.5610937,32.3079688 C69.9189062,32.5767188 70.0970312,32.9298438 70.0970312,33.3657813 C70.0970312,33.4548438 70.0923437,33.5204688 70.0860937,33.5626563 C70.0704687,33.6517188 70.0079687,33.6939063 69.9001562,33.6939063 L69.0814062,33.6939063 C68.9704687,33.6939063 68.9157812,33.6735938 68.9157812,33.6282813 L68.9267187,33.5626563 C68.9501562,33.3735938 68.8782812,33.2157813 68.7142187,33.0892188 C68.5501562,32.9610938 68.3110937,32.8970313 67.9970312,32.8970313 C67.7204687,32.8970313 67.4907812,32.9501563 67.3095312,33.0548438 C67.1282812,33.1626563 67.0204687,33.3079688 66.9923437,33.4970313 C66.9704687,33.6735938 67.0376562,33.8064063 67.1954687,33.8970313 C67.3501562,33.9892188 67.6110937,34.0876563 67.9767187,34.1985938 L68.2048437,34.2642188 C68.7298437,34.4235938 69.1407812,34.6079688 69.4345312,34.8157813 C69.7314062,35.0235938 69.8782812,35.3376563 69.8782812,35.7610938 C69.8782812,35.8485938 69.8735937,35.9142188 69.8657812,35.9579688 C69.8017187,36.4751563 69.5532812,36.8814063 69.1235937,37.1767188 C68.6939062,37.4720313 68.1470312,37.6189063 67.4845312,37.6189063 C66.8579687,37.6189063 66.3595313,37.4892188 65.9923438,37.2314063" id="Fill-18" fill="#35464D"></path>
        <path d="M73.8185938,32.9467188 C73.7857813,32.9795313 73.7389063,32.9951563 73.6810938,32.9951563 L72.6545313,32.9951563 C72.6107813,32.9951563 72.5889063,33.0170313 72.5889063,33.0607812 L72.2717188,35.6420312 C72.2639063,35.6920312 72.2607813,35.7607812 72.2607813,35.8482812 C72.2607813,36.0514062 72.3139063,36.2014062 72.4185938,36.2967187 C72.5248438,36.3920312 72.6857813,36.4389062 72.9060938,36.4389062 L73.1795313,36.4389062 C73.2373438,36.4389062 73.2764063,36.4545312 73.2998438,36.4889062 C73.3217188,36.5201562 73.3295313,36.5623437 73.3217188,36.6139062 L73.2342188,37.3451562 C73.2185938,37.4560937 73.1560938,37.5170312 73.0482813,37.5326562 L72.5342188,37.5420312 C72.0310938,37.5420312 71.6514063,37.4639062 71.3967188,37.3014062 C71.1420313,37.1420312 71.0139063,36.8467187 71.0139063,36.4170312 C71.0139063,36.3654687 71.0217188,36.2670312 71.0373438,36.1217187 L71.4076563,33.0607812 C71.4076563,33.0170313 71.3889063,32.9951563 71.3529688,32.9951563 L70.7951563,32.9951563 C70.7451563,32.9951563 70.7076563,32.9795313 70.6810938,32.9467188 C70.6560938,32.9139062 70.6467188,32.8717187 70.6545313,32.8201562 L70.7404688,32.1420313 C70.7560938,32.0264063 70.8170313,31.9670312 70.9264063,31.9670312 L71.4732813,31.9670312 C71.5170313,31.9670312 71.5435938,31.9451563 71.5498438,31.9029688 L71.7029688,30.6779688 C71.7092188,30.6279688 71.7310938,30.5842188 71.7639063,30.5529688 C71.7967188,30.5185938 71.8373438,30.5045313 71.8889063,30.5045313 L72.7310938,30.5045313 C72.7889063,30.5045313 72.8295313,30.5185938 72.8514063,30.5529688 C72.8732813,30.5842188 72.8795313,30.6279688 72.8732813,30.6779688 L72.7310938,31.9029688 C72.7232813,31.9170313 72.7248438,31.9326563 72.7373438,31.9451563 C72.7467188,31.9607813 72.7639063,31.9670312 72.7857813,31.9670312 L73.8123438,31.9670312 C73.8701563,31.9670312 73.9123438,31.9842188 73.9326563,32.0170313 C73.9545313,32.0498438 73.9623438,32.0920312 73.9545313,32.1420313 L73.8779688,32.8201562 C73.8701563,32.8717187 73.8514063,32.9139062 73.8185938,32.9467188" id="Fill-20" fill="#35464D"></path>
        <path d="M78.175,31.9670312 L79.05,31.9670312 C79.165625,31.9670312 79.2171875,32.0264062 79.2015625,32.1420312 L78.5578125,37.3795313 C78.55,37.4295313 78.53125,37.4717188 78.496875,37.5045313 C78.465625,37.5373438 78.421875,37.5529688 78.371875,37.5529688 L77.4859375,37.5529688 C77.434375,37.5529688 77.396875,37.5373438 77.3703125,37.5045313 C77.3453125,37.4717188 77.3375,37.4295313 77.34375,37.3795313 L77.3765625,37.0935938 C77.3765625,37.0654688 77.36875,37.0467188 77.3546875,37.0404688 C77.340625,37.0326563 77.321875,37.0435938 77.3,37.0732813 C76.971875,37.4451563 76.5203125,37.6295313 75.94375,37.6295313 C75.45625,37.6295313 75.0515625,37.4951563 74.73125,37.2248438 C74.4109375,36.9560938 74.25,36.5685938 74.25,36.0670313 C74.25,36.0092188 74.2578125,35.9139063 74.271875,35.7826563 L74.7203125,32.1420312 C74.734375,32.0264062 74.796875,31.9670312 74.90625,31.9670312 L75.8015625,31.9670312 C75.8546875,31.9670312 75.8921875,31.9842187 75.9171875,32.0170312 C75.9421875,32.0498437 75.9515625,32.0920312 75.94375,32.1420312 L75.5390625,35.4217188 C75.5328125,35.4654688 75.5296875,35.5342188 75.5296875,35.6295312 C75.5296875,35.9139063 75.603125,36.1389063 75.753125,36.3014063 C75.903125,36.4654688 76.1171875,36.5482813 76.3921875,36.5482813 C76.70625,36.5482813 76.971875,36.4451563 77.190625,36.2420313 C77.409375,36.0373438 77.540625,35.7654688 77.584375,35.4217188 L77.978125,32.1420312 C78,32.0264062 78.065625,31.9670312 78.175,31.9670312" id="Fill-22" fill="#35464D"></path>
        <path d="M83.1920313,34.7548438 C83.2139063,34.5657813 83.2248438,34.3954688 83.2248438,34.2423438 C83.2248438,33.9142188 83.1764063,33.6517188 83.0826563,33.4548438 C82.9373438,33.1345313 82.6935938,32.9735938 82.3498438,32.9735938 C81.9873438,32.9735938 81.6826563,33.1267188 81.4435938,33.4314063 C81.1951563,33.7595313 81.0389063,34.2048438 80.9732813,34.7657813 C80.9498438,34.9407813 80.9404688,35.1017188 80.9404688,35.2470313 C80.9404688,35.5470313 80.9842188,35.8017188 81.0717188,36.0126563 C81.2170313,36.3610938 81.4935938,36.5376563 81.9029688,36.5376563 C82.2514063,36.5376563 82.5467188,36.3657813 82.7873438,36.0235938 C82.9842188,35.7392188 83.1185938,35.3157813 83.1920313,34.7548438 M83.9795313,29.9032813 L84.8639063,29.9032813 C84.9810938,29.9032813 85.0326563,29.9610938 85.0170313,30.0767188 L84.1217188,37.3798438 C84.1139063,37.4298438 84.0935938,37.4720313 84.0623438,37.5048438 C84.0279688,37.5376563 83.9826563,37.5532813 83.9248438,37.5532813 L83.0389063,37.5532813 C82.9217188,37.5532813 82.8717188,37.4954688 82.8857813,37.3798438 L82.9295313,37.0939063 C82.9295313,37.0657813 82.9217188,37.0470313 82.9076563,37.0407813 C82.8935938,37.0329688 82.8748438,37.0439063 82.8529688,37.0720313 C82.5092188,37.4517188 82.0842188,37.6423438 81.5748438,37.6423438 C81.0779688,37.6423438 80.6732813,37.5048438 80.3560938,37.2314063 C80.0373438,36.9579688 79.8295313,36.5845313 79.7264063,36.1110938 C79.6826563,35.8782813 79.6607813,35.6360938 79.6607813,35.3892188 C79.6607813,35.1564063 79.6764063,34.9407813 79.7060938,34.7439063 C79.7639063,34.2345313 79.8764063,33.7907813 80.0435938,33.4110938 C80.2623438,32.9298438 80.5623438,32.5548438 80.9467188,32.2845313 C81.3295313,32.0157813 81.7748438,31.8798438 82.2842188,31.8798438 C82.7795313,31.8798438 83.1592188,32.0579688 83.4217188,32.4157813 C83.4357813,32.4392188 83.4529688,32.4470313 83.4717188,32.4439063 C83.4889063,32.4407813 83.4982813,32.4235938 83.4982813,32.3939063 L83.7826563,30.0767188 C83.8045313,29.9610938 83.8701563,29.9032813 83.9795313,29.9032813" id="Fill-24" fill="#35464D"></path>
        <path d="M86.1110938,31.0820313 C85.9798438,30.9585938 85.9142188,30.7976563 85.9142188,30.6007813 C85.9142188,30.3382813 86.0001563,30.1210938 86.1704688,29.9445313 C86.3407813,29.7710938 86.5548438,29.6820313 86.8095313,29.6820313 C87.0220313,29.6820313 87.1907813,29.7460938 87.3189063,29.8695313 C87.4454688,29.9929688 87.5110938,30.1570313 87.5110938,30.3601563 C87.5110938,30.6226563 87.4251563,30.8398438 87.2532813,31.0117188 C87.0814063,31.1820313 86.8689063,31.2679688 86.6126563,31.2679688 C86.4095313,31.2679688 86.2423438,31.2054688 86.1110938,31.0820313 M85.2470313,37.3789063 L85.8923438,32.1429688 C85.9142188,32.0257813 85.9798438,31.9664063 86.0892188,31.9664063 L86.9751563,31.9664063 C87.0907813,31.9664063 87.1423437,32.0257813 87.1267188,32.1429688 L86.4814063,37.3789063 C86.4751563,37.4289063 86.4564063,37.4726563 86.4220313,37.5039063 C86.3907813,37.5382813 86.3470313,37.5539063 86.2970313,37.5539063 L85.4001563,37.5539063 C85.2845313,37.5539063 85.2329688,37.4945313 85.2470313,37.3789063" id="Fill-26" fill="#35464D"></path>
        <path d="M90.7070312,36.3189062 C90.9148437,36.1642188 91.0726562,35.9517187 91.1835937,35.6735938 C91.2992187,35.4329688 91.3757812,35.1267188 91.4117187,34.7548437 C91.4335937,34.5579688 91.4445312,34.3767188 91.4445312,34.2079687 C91.4445312,34.1064063 91.4382812,33.9829688 91.4226562,33.8376563 C91.3726562,33.5595312 91.2601562,33.3470313 91.0898437,33.1970313 C90.9179687,33.0485938 90.6976562,32.9735938 90.4273437,32.9735938 C90.1585937,32.9735938 89.9195312,33.0485938 89.7117187,33.1970313 C89.5039062,33.3470313 89.3429687,33.5595312 89.2257812,33.8376563 C89.1226562,34.1142187 89.0507812,34.4204688 89.0070312,34.7548437 C88.9851562,34.9376563 88.9742187,35.1157812 88.9742187,35.2907813 C88.9742187,35.4001563 88.9820312,35.5282812 88.9960937,35.6735938 C89.0476562,35.9517187 89.1601562,36.1642188 89.3351562,36.3189062 C89.5085937,36.4720313 89.7320312,36.5470313 90.0023437,36.5470313 C90.2648437,36.5470313 90.4992187,36.4720313 90.7070312,36.3189062 M88.4882812,37.2032812 C88.1195312,36.9126562 87.8882812,36.5079687 87.7945312,35.9907812 C87.7492187,35.8017187 87.7289062,35.5860937 87.7289062,35.3454688 C87.7289062,35.2064063 87.7429687,35.0064062 87.7710937,34.7439063 C87.8304687,34.2845313 87.9367187,33.8704688 88.0882812,33.4970312 C88.3148437,32.9876563 88.6476562,32.5907812 89.0835937,32.3079688 C89.5210937,32.0220313 90.0242187,31.8798438 90.5929687,31.8798438 C91.1304687,31.8798438 91.5804687,32.0220313 91.9367187,32.3079688 C92.2945312,32.5907812 92.5226562,32.9845313 92.6257812,33.4876563 C92.6695312,33.6907813 92.6914062,33.9251563 92.6914062,34.1876563 C92.6914062,34.3610938 92.6804687,34.5439062 92.6585937,34.7329687 C92.5992187,35.1845312 92.4914062,35.6001562 92.3304687,35.9798438 C92.1054687,36.4970312 91.7757812,36.9032812 91.3398437,37.1970312 C90.9070312,37.4939062 90.4164062,37.6423437 89.8710937,37.6423437 C89.3164062,37.6423437 88.8554687,37.4954688 88.4882812,37.2032812" id="Fill-28" fill="#35464D"></path>
    </g>
</svg>