<?xml version="1.0" encoding="utf-8"?>
<!-- Generator: Adobe Illustrator 22.0.0, SVG Export Plug-In . SVG Version: 6.00 Build 0)  -->
<svg version="1.1" id="圖層_1" xmlns="http://www.w3.org/2000/svg" xmlns:xlink="http://www.w3.org/1999/xlink" x="0px" y="0px"
	 viewBox="0 0 100 45" style="enable-background:new 0 0 100 45;" xml:space="preserve">
<style type="text/css">
	.st0{fill:#333333;}
</style>
<title>logo</title>
<desc>Created with Sketch.</desc>
<g>
	<g>
		<path class="st0" d="M19.7,11.5l-4.9,4.7l-0.1,1.1h11.2l-1.6,15h-3.9l1.4-13.7h-1.3l-2.9,5.1l-1.9-5.1h-1.3l-1.6,14.8h1.3
			l1.3-12.1l1.5,4H18l2.3-4L19,33.5h6.5l4.5-4.4l1.8-17.5H19.7z M16.6,16.2l3.7-3.6l9.8,0l-3.7,3.6H16.6z M28.8,28.5l-3.2,3
			l1.6-14.4l3.1-3L28.8,28.5z"/>
		<path class="st0" d="M22.5,1.1c11.8,0,21.4,9.6,21.4,21.4s-9.6,21.4-21.4,21.4S1.1,34.3,1.1,22.5S10.7,1.1,22.5,1.1 M22.5,0
			C10.1,0,0,10.1,0,22.5S10.1,45,22.5,45s22.5-10.1,22.5-22.5S34.9,0,22.5,0L22.5,0z"/>
	</g>
	<g>
		<path class="st0" d="M58.4,20v-3.5l-1.1,2.3h-0.8l-1.1-2.3V20h-1.2v-6h1.1l1.6,3.2l1.6-3.2h1.1v6H58.4z"/>
		<path class="st0" d="M61.6,20v-6h3.9v1h-2.8v1.4h2.4v1h-2.4v1.5h2.8v1H61.6z"/>
		<path class="st0" d="M70.8,20l-2.4-3.7V20h-1.2v-6h1l2.4,3.7V14h1.2v6H70.8z"/>
		<path class="st0" d="M77.6,19.4c-0.5,0.5-1,0.7-1.7,0.7c-0.7,0-1.2-0.2-1.6-0.7c-0.6-0.6-0.6-1.3-0.6-2.4c0-1,0-1.8,0.6-2.4
			c0.4-0.4,0.9-0.7,1.6-0.7c1.4,0,2.1,0.9,2.2,1.9H77c-0.1-0.6-0.5-0.9-1.1-0.9c-0.3,0-0.6,0.1-0.7,0.3c-0.2,0.3-0.3,0.5-0.3,1.7
			c0,1.1,0.1,1.4,0.3,1.7c0.2,0.2,0.4,0.3,0.7,0.3c0.4,0,0.6-0.1,0.8-0.3c0.2-0.2,0.3-0.5,0.3-0.8v-0.2h-1.1v-1h2.3v0.9
			C78.1,18.4,78,18.9,77.6,19.4z"/>
		<path class="st0" d="M80,20v-6h1.2v4.9h2.7v1H80z"/>
		<path class="st0" d="M85.4,20v-6h1.2v6H85.4z"/>
		<path class="st0" d="M92.1,20l-2.4-3.7V20h-1.2v-6h1l2.4,3.7V14h1.2v6H92.1z"/>
		<path class="st0" d="M55.5,32.6c-0.7,0-1.3-0.1-1.9-0.6l0.7-0.7c0.4,0.4,0.8,0.4,1.2,0.4c0.4,0,0.8-0.1,0.8-0.5
			c0-0.2-0.1-0.4-0.5-0.4l-0.7-0.1c-0.8-0.1-1.3-0.4-1.3-1.2c0-0.9,0.8-1.4,1.7-1.4c0.7,0,1.2,0.1,1.7,0.5l-0.7,0.7
			c-0.3-0.2-0.6-0.3-1-0.3c-0.4,0-0.6,0.2-0.6,0.4c0,0.2,0.1,0.3,0.5,0.4l0.7,0.1c0.9,0.1,1.3,0.5,1.3,1.3
			C57.4,32.2,56.5,32.6,55.5,32.6z"/>
		<path class="st0" d="M60.2,32.6c-0.9,0-1.3-0.6-1.3-1.2v-2.2h-0.5v-0.8h0.5V27H60v1.3h0.8v0.8H60v2.1c0,0.3,0.1,0.4,0.4,0.4h0.4
			v0.9H60.2z"/>
		<path class="st0" d="M64.9,32.6v-0.4c-0.3,0.3-0.7,0.5-1.1,0.5c-0.4,0-0.8-0.1-1-0.4c-0.4-0.4-0.4-0.8-0.4-1.2v-2.8h1.1v2.6
			c0,0.6,0.4,0.8,0.7,0.8c0.3,0,0.7-0.2,0.7-0.8v-2.6H66v4.4H64.9z"/>
		<path class="st0" d="M70.3,32.6v-0.4c-0.3,0.3-0.6,0.5-1.1,0.5c-0.4,0-0.8-0.2-1.1-0.4c-0.4-0.4-0.4-1.2-0.4-1.8
			c0-0.7,0-1.4,0.4-1.8c0.2-0.2,0.6-0.4,1.1-0.4c0.4,0,0.8,0.1,1.1,0.4v-2h1.1v6H70.3z M69.5,29.1c-0.7,0-0.7,0.5-0.7,1.2
			c0,0.7,0.1,1.3,0.7,1.3c0.7,0,0.7-0.5,0.7-1.3C70.2,29.7,70.1,29.1,69.5,29.1z"/>
		<path class="st0" d="M73.2,27.5v-0.9h1.1v0.9H73.2z M73.2,32.6v-4.4h1.1v4.4H73.2z"/>
		<path class="st0" d="M79.1,32.1c-0.3,0.3-0.7,0.5-1.4,0.5c-0.6,0-1.1-0.3-1.3-0.5c-0.4-0.4-0.5-0.9-0.5-1.7c0-0.8,0.1-1.3,0.5-1.7
			c0.3-0.3,0.7-0.5,1.3-0.5c0.6,0,1.1,0.3,1.4,0.5c0.4,0.4,0.5,0.9,0.5,1.7C79.6,31.2,79.5,31.7,79.1,32.1z M78.3,29.3
			c-0.1-0.1-0.3-0.2-0.5-0.2c-0.2,0-0.4,0.1-0.5,0.2C77,29.5,77,29.9,77,30.4c0,0.5,0,0.8,0.3,1.1c0.1,0.1,0.3,0.2,0.5,0.2
			c0.2,0,0.4-0.1,0.5-0.2c0.2-0.2,0.3-0.6,0.3-1.1C78.5,29.9,78.5,29.5,78.3,29.3z"/>
	</g>
</g>
</svg>
