<?xml version="1.0" encoding="UTF-8"?>
<svg width="24px" height="24px" viewBox="0 0 24 24" version="1.1" xmlns="http://www.w3.org/2000/svg" xmlns:xlink="http://www.w3.org/1999/xlink">
    <!-- Generator: Sketch 52.3 (67297) - http://www.bohemiancoding.com/sketch -->
    <title>Location</title>
    <desc>Created with Sketch.</desc>
    <g id="Location" stroke="none" stroke-width="1" fill="none" fill-rule="evenodd">
        <g>
            <rect id="space" x="0" y="0" width="24" height="24"></rect>
            <path d="M20.4545455,8.72727273 C20.4545455,13.0909091 17.5454545,19.5812711 11.7272727,24 C5.90909091,19.5812711 3,13.0909091 3,8.72727273 C3,3.92727262 6.90733309,-1.82964754e-13 11.7272727,-1.82964754e-13 C16.5472124,-1.82964754e-13 20.4545455,3.92727262 20.4545455,8.72727273 Z M18.2545455,8.72727273 C18.2545455,5.13463659 15.3245329,2.2 11.7272727,2.2 C8.13001253,2.2 5.2,5.13463659 5.2,8.72727273 C5.2,12.5029567 7.68814225,17.5171235 11.7272727,21.1472121 C15.7664032,17.5171235 18.2545455,12.5029567 18.2545455,8.72727273 Z M11.8,12.8 C9.590861,12.8 7.8,11.009139 7.8,8.8 C7.8,6.590861 9.590861,4.8 11.8,4.8 C14.009139,4.8 15.8,6.590861 15.8,8.8 C15.8,11.009139 14.009139,12.8 11.8,12.8 Z M11.8,10.6 C12.7941125,10.6 13.6,9.79411255 13.6,8.8 C13.6,7.80588745 12.7941125,7 11.8,7 C10.8058875,7 10,7.80588745 10,8.8 C10,9.79411255 10.8058875,10.6 11.8,10.6 Z" id="location" fill="#FFFFFF" fill-rule="nonzero"></path>
        </g>
    </g>
</svg>