<?xml version="1.0" encoding="UTF-8"?>
<svg width="24px" height="24px" viewBox="0 0 24 24" version="1.1" xmlns="http://www.w3.org/2000/svg" xmlns:xlink="http://www.w3.org/1999/xlink">
    <!-- Generator: Sketch 52.6 (67491) - http://www.bohemiancoding.com/sketch -->
    <title>right</title>
    <desc>Created with Sketch.</desc>
    <g id="right" stroke="none" stroke-width="1" fill="none" fill-rule="evenodd">
        <path d="M18.3493455,19.271593 C18.4928103,19.1028027 18.8910074,18.6988548 19.1373753,18.461004 C19.3356346,18.2718987 19.4907018,18.118554 19.6303796,17.9733322 C19.9890525,17.6008596 19.9876675,17.2822995 19.6397092,16.9356028 L17.3385721,14.6422488 C17.1796925,14.4776658 17.0235684,14.4078024 16.8753076,14.4078024 C16.7223842,14.4078024 16.5546111,14.4819209 16.3682715,14.6675849 L14.3821759,16.6464791 L13.0093199,15.9078648 C12.915485,15.8573804 12.8316875,15.8088878 12.7506207,15.7574857 C11.4056836,14.9065877 10.1919902,13.8040853 9.02265931,12.3751041 C8.65175128,11.9072021 8.35370145,11.4795142 8.10893505,11.058006 L7.28879829,9.64566198 L8.45571486,8.50301346 C8.59532935,8.3663025 8.75509827,8.20584992 8.96015458,7.9967627 C9.05879704,7.89521748 9.13482519,7.81866743 9.33569455,7.61832564 C9.52450212,7.43026441 9.60189649,7.25808833 9.60189649,7.11735674 C9.60189649,6.97323609 9.52498812,6.80299794 9.32165988,6.60223416 L8.1978536,5.48248899 C8.13433528,5.41920098 8.06898956,5.35328803 7.99377631,5.2766819 C7.97427037,5.25679851 7.97427037,5.25679851 7.96170764,5.24398113 C7.94904809,5.23105311 7.94904809,5.23105311 7.92819369,5.20973611 C7.88918296,5.16979788 7.88918296,5.16979788 7.86500932,5.1450336 L7.86496232,5.14498543 C7.84032437,5.119729 7.84032437,5.119729 7.79940829,5.07775812 C7.47808073,4.74789363 7.27389673,4.54626097 7.03346828,4.32313125 C6.87574344,4.1688794 6.71381194,4.1 6.55268177,4.1 C6.39071216,4.1 6.21885287,4.17313226 6.06105107,4.32219532 L4.63148369,5.746212 C4.31586408,6.06068723 4.14852595,6.41906224 4.11255573,6.84667342 C4.05576263,7.55841032 4.19001132,8.3429941 4.5684301,9.35839413 C5.17946037,11.0108989 6.10735131,12.5558365 7.5048031,14.2288359 C9.19346816,16.2401101 11.2247504,17.8251229 13.5338393,18.9403913 C14.8496219,19.5617094 15.7570718,19.8332227 16.6892501,19.8936104 C16.7281241,19.8953084 16.7281241,19.8953084 16.74666,19.8960777 L16.7976172,19.8980652 C16.8557246,19.899788 16.8673735,19.9 16.8942135,19.9 C17.4929406,19.9 17.9227099,19.7206774 18.3279951,19.2977201 C18.3339255,19.2904625 18.3409837,19.2818254 18.3493455,19.271593 Z M19.9065626,20.6843933 C19.0868886,21.5719159 18.0872634,22 16.8942135,22 C16.842889,22 16.8110835,21.9993872 16.7353826,21.9971428 C16.6633117,21.9944819 16.6633117,21.9944819 16.5975432,21.991607 C15.2570735,21.9054076 14.0793642,21.5203444 12.6371541,20.8393267 C10.0439597,19.5869383 7.77587864,17.8175772 5.8965058,15.5791617 C4.35025179,13.728031 3.29801988,11.9777975 2.59876647,10.0866971 C2.12477612,8.81487759 1.9355005,7.72868547 2.01920959,6.67963471 C2.09771435,5.74588205 2.48231241,4.92312146 3.14925884,4.25859327 L4.57901805,2.83438548 C5.14614563,2.29571941 5.82820463,2 6.55268177,2 C7.28299511,2 7.96604667,2.29784146 8.50177102,2.82176951 C8.73955174,3.04126759 8.97426592,3.27427094 9.30367017,3.61242669 C9.36764626,3.67805164 9.36764626,3.67805164 9.43046007,3.74235895 C9.46172743,3.77431831 9.46172743,3.77431831 9.49286349,3.80605698 C9.56099455,3.87544955 9.62127321,3.93627823 9.68007845,3.99487026 L10.8038938,5.11462445 C11.3797337,5.68311268 11.7018965,6.3812401 11.7018965,7.11735674 C11.7018965,7.8505051 11.3790147,8.5470671 10.8176752,9.10618764 C10.634589,9.28879354 10.559375,9.36434417 10.4664522,9.46000143 C10.2568992,9.67370741 10.0833526,9.84835437 9.92495496,10.0034579 C10.1156043,10.331772 10.3575628,10.6785517 10.668324,11.0705783 C11.6811148,12.3079073 12.7284274,13.2584533 13.8733865,13.9828317 C13.9103382,14.0062611 13.9514054,14.0300787 14.0042863,14.0585293 L14.8860466,13.1799661 C15.4478577,12.6201921 16.1399277,12.3078024 16.8753076,12.3078024 C17.6169354,12.3078024 18.3108184,12.625773 18.8494439,13.1837336 L21.1219341,15.4479841 C22.2875023,16.6093261 22.2907684,18.2381058 21.143061,19.4299704 C20.9760185,19.6036437 20.7976719,19.7794632 20.5868038,19.9805951 C20.4450052,20.1175235 20.0472076,20.5166027 19.9494507,20.6316163 C19.9336451,20.6516774 19.919349,20.6692698 19.9065626,20.6843933 Z" id="telephone" fill="#FFFFFF" fill-rule="nonzero"></path>
    </g>
</svg>