<?xml version="1.0" encoding="utf-8"?>
<!-- Generator: Adobe Illustrator 21.0.0, SVG Export Plug-In . SVG Version: 6.00 Build 0)  -->
<svg version="1.1" id="_x31_24ad9fe-1504-471b-8ba2-0f32daf7d726"
	 xmlns="http://www.w3.org/2000/svg" xmlns:xlink="http://www.w3.org/1999/xlink" x="0px" y="0px" viewBox="0 0 20 176"
	 style="enable-background:new 0 0 20 176;" xml:space="preserve">
<style type="text/css">
	.st0{fill:#FFFFFF;}
</style>
<title>190123 offical logo</title>
<path class="st0" d="M16.8,107.6v-3.3h1.7v-1.2h-1.7v-3.1h-4.4v-2h-1.4v2H7.3v1.2h3.8v1.9H6.4v1.2h4.7v2.1H7.2v1.2h3.9v2.1H6.7v1.2
	h4.4v2.2H5.9v1.2h5.2v3.6h1.4v-3.6h5.9v-1.2h-5.9V111h4.9v-1.2h-4.9v-2.1H16.8z M12.4,101.3h3.1v1.9h-3.1L12.4,101.3z M12.4,104.4
	h3.1v2.1h-3.1L12.4,104.4z"/>
<path class="st0" d="M3.2,106.2c-0.6,1.1-1.4,2.1-2.2,3l0.7,1.3c0.3-0.3,0.5-0.6,0.8-0.9c0.2-0.3,0.5-0.6,0.7-1l-0.1,1.6v7.8h1.3
	v-11.4c0.3-0.5,0.5-1,0.7-1.5c0.2-0.5,0.5-1,0.7-1.6l-1.2-0.6C4.3,104.1,3.8,105.2,3.2,106.2z"/>
<path class="st0" d="M3,102.9c0.4-0.4,0.8-0.9,1.2-1.3c0.4-0.5,0.7-0.9,1-1.4c0.3-0.4,0.6-0.9,0.8-1.3L4.8,98
	c-0.4,0.9-1,1.8-1.6,2.6c-0.6,0.8-1.4,1.6-2.2,2.2l0.8,1.2C2.2,103.7,2.6,103.3,3,102.9z"/>
<path class="st0" d="M2.1,167.9v6.4l5.4,0v-6.4L2.1,167.9z M6.2,173.2H3.4v-4.1h2.8L6.2,173.2z"/>
<rect x="1.4" y="158.9" class="st0" width="6.7" height="1.2"/>
<rect x="2.1" y="161.9" class="st0" width="5.4" height="1.2"/>
<rect x="2.1" y="164.9" class="st0" width="5.4" height="1.2"/>
<rect x="2.2" y="155.9" class="st0" width="5.4" height="1.2"/>
<path class="st0" d="M11.8,162.3v1.1H14v1.2h-2.2c0,1.1-0.1,2.1-0.2,3.1c-0.1,0.9-0.2,1.8-0.4,2.7c-0.2,0.9-0.5,1.7-0.8,2.5
	c-0.2,0.5-0.4,1-0.7,1.4c-0.4-0.2-0.8-0.5-1.1-0.8c0.2-0.4,0.5-0.8,0.6-1.2c0.3-0.8,0.6-1.5,0.8-2.3c0.2-0.8,0.3-1.7,0.4-2.6
	c0.1-0.9,0.2-1.8,0.2-2.8H8.1v-1.2h2.4c0-0.2,0-0.4,0-0.5s0-0.4,0-0.6v-3.8h1.3V162.3z"/>
<path class="st0" d="M19.1,171c-0.1,0.5-0.1,1-0.2,1.5c-0.1,0.5-0.2,0.9-0.3,1.3c-0.1,0.2-0.2,0.5-0.4,0.6c-0.2,0.2-0.4,0.3-0.7,0.3
	c-0.3,0-0.5-0.1-0.8-0.3c-0.3-0.2-0.6-0.5-0.8-0.9c-0.4-0.9-0.7-2-0.9-3c-0.2-1.3-0.3-2.5-0.3-3.8c0-0.3,0-0.7,0-1.1
	c0-0.4,0-0.8,0-1.2c0-1.1,0-2.2,0-3.4c0-1.2,0-2.5,0-3.9H8.2v-1.2h7.7v4.5c0,1.3,0,2.5,0,3.6c0,0.4,0,0.8,0,1.2c0,0.4,0,0.8,0,1.2
	c0,0.3,0,0.7,0.1,1.2c0,0.5,0.1,1.1,0.2,1.7c0.1,0.6,0.2,1.2,0.3,1.8c0.1,0.5,0.2,1,0.4,1.4c0,0.1,0.1,0.2,0.2,0.3
	c0.1,0.1,0.1,0.2,0.3,0.2h0c0.1,0,0.2-0.1,0.2-0.2c0.1-0.2,0.1-0.3,0.2-0.5c0.1-0.3,0.1-0.6,0.1-1c0-0.3,0.1-0.7,0.1-1.1L19.1,171z"
	/>
<path class="st0" d="M15.6,144.4c-0.9-0.3-1.8-0.6-2.7-1.1h3.1v-8.5H3.9v8.5h3c-0.9,0.5-1.8,0.9-2.8,1.1c-0.9,0.3-1.9,0.5-2.9,0.7
	l0.7,1.2c1.1-0.2,2.2-0.5,3.3-0.9c1-0.4,2-0.8,2.9-1.4l-0.7-0.7h5.2l-0.7,0.7c0.4,0.3,0.8,0.5,1.3,0.7c0.5,0.2,1,0.5,1.5,0.6
	c0.5,0.2,1.1,0.4,1.6,0.5c0.6,0.2,1.1,0.3,1.6,0.4l0.7-1.2C17.6,144.9,16.6,144.7,15.6,144.4z M5.2,135.9h9.5v1.4H5.2V135.9z
	 M5.2,138.4h9.5v1.4H5.2V138.4z M5.2,142.3v-1.4h9.5v1.4H5.2z"/>
<path class="st0" d="M6.7,132c-0.3,0.2-0.7,0.4-1.1,0.5c-0.4,0.2-0.8,0.4-1.3,0.5c-0.4,0.2-0.9,0.4-1.3,0.5
	c-0.4,0.2-0.9,0.3-1.3,0.5l-0.5-1.3c0.8-0.3,1.6-0.5,2.5-0.8c0.9-0.3,1.7-0.6,2.4-1L6.7,132z"/>
<rect x="1.6" y="127.8" class="st0" width="4.8" height="1.2"/>
<path class="st0" d="M10.2,126.8c-0.1,0.2-0.1,0.1-0.1,0.3c-0.1,0.2-0.2,0.4-0.3,0.7h6.9l0.8,0.7c-0.1,0.2-0.2,0.5-0.3,0.7
	c-0.1,0.3-0.3,0.5-0.4,0.8c-0.1,0.3-0.3,0.5-0.4,0.8c-0.1,0.3-0.3,0.5-0.4,0.6l-1-0.6c0.1-0.1,0.2-0.2,0.3-0.4
	c0.1-0.1,0.2-0.3,0.2-0.4c0.2-0.3,0.4-0.7,0.6-1.1h-3.4c0,0.1,0,0.1,0,0.2c0,0.1,0,0.1,0,0.2c0.3,0.6,0.6,1.2,1.1,1.6
	c0.5,0.4,1,0.8,1.5,1.1c0.5,0.3,1.1,0.5,1.7,0.7c0.5,0.2,1,0.3,1.5,0.4l-0.6,1.3c-0.4-0.1-0.9-0.3-1.3-0.4c-0.6-0.2-1.1-0.5-1.6-0.7
	c-0.5-0.3-1.1-0.7-1.5-1.1c-0.5-0.4-1-0.9-1.3-1.5c-0.5,1-1.2,1.8-2.1,2.4c-0.9,0.6-1.9,1-3,1.2l-0.6-1.2c0.5-0.1,1-0.2,1.5-0.4
	c0.6-0.2,1.1-0.5,1.6-0.8c0.5-0.3,0.9-0.8,1.3-1.3c0.4-0.5,0.6-1.2,0.8-1.8H9.2c-0.2,0.5-0.5,0.9-0.8,1.3c-0.3,0.4-0.5,0.8-0.8,1.2
	l-1-0.8c0.2-0.3,0.4-0.6,0.6-0.8c0.2-0.3,0.4-0.7,0.7-1.1c0.2-0.4,0.4-0.8,0.6-1.2c0.2-0.3,0.3-0.6,0.4-1L10.2,126.8z"/>
<path class="st0" d="M14,80.6H6.2v5.1l7.8,0V80.6z M12.7,84.5H7.5v-2.7h5.1V84.5z"/>
<path class="st0" d="M3.1,70.3V77c0,0.8,0,1.6,0,2.3c0,0.7,0,1.4-0.1,2c0,0.6,0,1.2-0.1,1.6c0,0.5-0.1,0.8-0.1,1.1
	c-0.1,0.8-0.3,1.5-0.5,2.2c-0.3,0.7-0.6,1.5-1.1,2.1l1.1,1c0.5-0.7,0.8-1.5,1.2-2.3c0.3-0.8,0.5-1.7,0.6-2.6
	c0.2-1.1,0.2-2.1,0.3-3.2c0-1.2,0.1-2.6,0.1-4.2v-5.7h11.4V87c0,0.2,0,0.4-0.1,0.6c-0.1,0.1-0.3,0.2-0.8,0.2c-0.3,0-0.5,0-0.8,0
	c-0.3,0-0.5-0.1-0.8-0.1l0.3,1.4c0.2,0,0.5,0,0.8,0.1c0.3,0,0.6,0,0.8,0c0.3,0,0.6,0,0.9-0.1c0.2,0,0.4-0.2,0.6-0.3
	c0.2-0.2,0.3-0.4,0.3-0.6c0.1-0.3,0.1-0.6,0.1-1V70.3L3.1,70.3z"/>
<polygon class="st0" points="5.3,78.1 5.3,79.2 15.1,79.2 15.1,78.1 10.9,78.1 10.9,75.6 14.3,75.6 14.3,74.4 10.9,74.4 10.9,72.4 
	9.6,72.4 9.6,74.4 6,74.4 6,75.6 9.6,75.6 9.6,78.1 "/>
<path class="st0" d="M2,41.6v18.7l15.8,0V41.6L2,41.6z M16.5,59.1H3.4V42.8h13.2V59.1z"/>
<path class="st0" d="M8.8,56.7L8,55.8c-0.6,0.3-1.2,0.6-1.8,0.9C5.5,57,4.8,57.2,4,57.3l0.6,1.1C6.1,58,7.5,57.5,8.8,56.7z"/>
<path class="st0" d="M15,48.2H4.9v7.5H15L15,48.2z M13.7,54.8H6.2v-1.2h7.5V54.8z M13.7,52.5H6.2v-1.2h7.5V52.5z M13.7,50.4H6.2
	v-1.2h7.5V50.4z"/>
<path class="st0" d="M14.2,44.1H5.7v3.2h8.5V44.1z M12.9,46.3H7v-1.2h5.9V46.3z"/>
<path class="st0" d="M13.7,56.6c-0.4-0.1-0.7-0.3-1-0.4c-0.3-0.1-0.6-0.3-0.9-0.4l-0.6,0.9c0.3,0.2,0.6,0.4,0.9,0.5
	c0.3,0.2,0.7,0.3,1,0.5c0.4,0.1,0.7,0.3,1.1,0.4s0.7,0.2,1,0.3l0.6-1.1c-0.4-0.1-0.7-0.2-1-0.3C14.4,56.9,14,56.8,13.7,56.6z"/>
<path class="st0" d="M18.9,20.6c0,0.8-0.1,1.6-0.3,2.4c-0.1,0.5-0.4,1-0.8,1.3c-0.3,0.3-0.7,0.6-1.2,0.7c-0.5,0.2-1.1,0.2-1.7,0.2
	c-1,0.1-1.9-0.3-2.7-0.9c-0.8-0.9-1.1-2-1-3.2V4.1H8.1v16c0,0.8,0,1.6-0.2,2.4c-0.2,0.6-0.5,1.2-0.9,1.6c-0.5,0.5-1.2,0.8-1.9,1
	c-1,0.2-2,0.2-2.9,0.2v-2.8c0.5,0,1,0,1.6-0.1c0.4-0.1,0.8-0.2,1.1-0.5c0.4-0.6,0.7-1.4,0.6-2.2V4.1H0.9V1.3h17.6v2.8h-4.4v16.4
	c-0.1,0.5,0,1.1,0.2,1.6c0.2,0.3,0.6,0.4,1,0.4c0.4,0,0.8-0.2,1.1-0.5c0.2-0.5,0.4-1,0.4-1.5L18.9,20.6z"/>
</svg>
