<?xml version="1.0" encoding="utf-8"?>
<!-- Generator: Adobe Illustrator 21.0.0, SVG Export Plug-In . SVG Version: 6.00 Build 0)  -->
<svg version="1.1" id="fca33331-2602-4296-9277-96def91c2e29"
	 xmlns="http://www.w3.org/2000/svg" xmlns:xlink="http://www.w3.org/1999/xlink" x="0px" y="0px" viewBox="0 0 142 26"
	 style="enable-background:new 0 0 142 26;" xml:space="preserve">
<style type="text/css">
	.st0{fill:#FFFFFF;}
</style>
<title>190123 offical logo</title>
<path class="st0" d="M93.8,12.8V9.6h1.7V8.4h-1.7V5.3h-4.4v-2H88v2h-3.8v1.2H88v1.9h-4.7v1.2H88v2.1h-3.9v1.2H88V15h-4.4v1.2H88v2.2
	h-5.2v1.2H88v3.6h1.4v-3.6h5.9v-1.2h-5.9v-2.2h4.9V15h-4.9v-2.1L93.8,12.8z M89.4,6.5h3.1v1.9h-3.1V6.5z M89.4,9.6h3.1v2.1h-3.1V9.6
	z"/>
<path class="st0" d="M80.1,11.4c-0.6,1.1-1.4,2.1-2.2,3l0.7,1.3c0.3-0.3,0.5-0.6,0.8-0.9c0.2-0.3,0.5-0.6,0.7-1l-0.1,1.6v7.8h1.3
	V11.8c0.3-0.5,0.5-1,0.7-1.5c0.2-0.5,0.5-1,0.7-1.6l-1.2-0.6C81.2,9.3,80.7,10.4,80.1,11.4z"/>
<path class="st0" d="M79.9,8.1c0.4-0.4,0.8-0.9,1.2-1.3c0.4-0.5,0.7-0.9,1-1.4c0.3-0.4,0.6-0.9,0.8-1.3l-1.1-0.7
	c-0.4,0.9-1,1.8-1.6,2.6c-0.6,0.8-1.4,1.6-2.2,2.2l0.8,1.2C79.1,8.9,79.5,8.5,79.9,8.1z"/>
<path class="st0" d="M123.7,16.1v6.4l5.4,0v-6.4H123.7z M127.8,21.4H125v-4.1h2.8V21.4z"/>
<rect x="123" y="7.1" class="st0" width="6.7" height="1.2"/>
<rect x="123.7" y="10.1" class="st0" width="5.4" height="1.2"/>
<rect x="123.7" y="13.1" class="st0" width="5.4" height="1.2"/>
<rect x="123.8" y="4.1" class="st0" width="5.4" height="1.2"/>
<path class="st0" d="M133.4,10.5v1.1h2.2v1.2h-2.2c0,1.1-0.1,2.1-0.2,3.1c-0.1,0.9-0.2,1.8-0.4,2.7c-0.2,0.9-0.5,1.7-0.8,2.5
	c-0.2,0.5-0.4,1-0.7,1.4c-0.4-0.2-0.8-0.5-1.1-0.8c0.2-0.4,0.5-0.8,0.6-1.2c0.3-0.8,0.6-1.5,0.8-2.3c0.2-0.8,0.3-1.7,0.4-2.6
	c0.1-0.9,0.2-1.8,0.2-2.8h-2.3v-1.2h2.4c0-0.2,0-0.4,0-0.5s0-0.4,0-0.6V6.7h1.3L133.4,10.5z"/>
<path class="st0" d="M140.7,19.2c-0.1,0.5-0.1,1-0.2,1.5c-0.1,0.5-0.2,0.9-0.3,1.3c-0.1,0.2-0.2,0.5-0.4,0.6
	c-0.2,0.2-0.4,0.3-0.7,0.3c-0.3,0-0.5-0.1-0.8-0.3c-0.3-0.2-0.6-0.5-0.8-0.9c-0.4-0.9-0.7-2-0.9-3c-0.2-1.3-0.3-2.5-0.3-3.8
	c0-0.3,0-0.7,0-1.1c0-0.4,0-0.8,0-1.2c0-1.1,0-2.2,0-3.4c0-1.2,0-2.5,0-3.9h-6.4V4.1h7.7v4.5c0,1.3,0,2.5,0,3.6c0,0.4,0,0.8,0,1.2
	c0,0.4,0,0.8,0,1.2c0,0.3,0,0.7,0.1,1.2c0,0.5,0.1,1.1,0.2,1.7c0.1,0.6,0.2,1.2,0.3,1.8c0.1,0.5,0.2,1,0.4,1.4
	c0,0.1,0.1,0.2,0.2,0.3c0.1,0.1,0.1,0.2,0.3,0.2h0c0.1,0,0.2-0.1,0.2-0.2c0.1-0.2,0.1-0.3,0.2-0.5c0.1-0.3,0.1-0.6,0.1-1
	c0-0.3,0.1-0.7,0.1-1.1L140.7,19.2z"/>
<path class="st0" d="M115,21.1c-0.9-0.3-1.8-0.6-2.7-1.1h3.1v-8.5h-12.1v8.5h3c-0.9,0.5-1.8,0.9-2.8,1.1c-0.9,0.3-1.9,0.5-2.9,0.7
	l0.7,1.2c1.1-0.2,2.2-0.5,3.3-0.9c1-0.4,2-0.8,2.9-1.4l-0.7-0.7h5.2l-0.7,0.7c0.4,0.3,0.8,0.5,1.3,0.7c0.5,0.2,1,0.5,1.5,0.6
	c0.5,0.2,1.1,0.4,1.6,0.5c0.6,0.2,1.1,0.3,1.6,0.4l0.7-1.2C117,21.7,116,21.4,115,21.1z M104.7,12.7h9.5v1.4h-9.5V12.7z M104.7,15.1
	h9.5v1.4h-9.5V15.1z M104.7,19v-1.4h9.5V19H104.7z"/>
<path class="st0" d="M106.2,8.7c-0.3,0.2-0.7,0.4-1.1,0.5c-0.4,0.2-0.8,0.4-1.3,0.5c-0.4,0.2-0.9,0.4-1.3,0.5
	c-0.4,0.2-0.9,0.3-1.3,0.5l-0.5-1.3c0.8-0.3,1.6-0.5,2.5-0.8c0.9-0.3,1.7-0.6,2.4-1L106.2,8.7z"/>
<rect x="101" y="4.5" class="st0" width="4.8" height="1.2"/>
<path class="st0" d="M109.6,3.6c-0.1,0.2-0.1,0.1-0.1,0.3c-0.1,0.2-0.2,0.4-0.3,0.7h6.9l0.8,0.7c-0.1,0.2-0.2,0.5-0.3,0.7
	c-0.1,0.3-0.3,0.5-0.4,0.8c-0.1,0.3-0.3,0.5-0.4,0.8c-0.2,0.3-0.3,0.5-0.4,0.6l-1-0.6c0.1-0.1,0.2-0.2,0.3-0.4
	c0.1-0.1,0.2-0.3,0.2-0.4c0.2-0.3,0.4-0.7,0.6-1.1H112c0,0.1,0,0.1,0,0.2c0,0.1,0,0.1,0,0.2c0.3,0.6,0.6,1.2,1.1,1.6
	c0.5,0.4,1,0.8,1.5,1.1c0.5,0.3,1.1,0.5,1.7,0.7c0.5,0.2,1,0.3,1.5,0.4l-0.6,1.3c-0.4-0.1-0.9-0.3-1.3-0.4c-0.6-0.2-1.1-0.5-1.6-0.7
	c-0.5-0.3-1.1-0.7-1.5-1.1c-0.5-0.4-1-0.9-1.3-1.5c-0.5,1-1.2,1.8-2.1,2.4c-0.9,0.6-1.9,1-3,1.2l-0.6-1.2c0.5-0.1,1-0.2,1.5-0.4
	c0.6-0.2,1.1-0.5,1.6-0.8c0.5-0.3,0.9-0.8,1.3-1.3c0.4-0.5,0.6-1.2,0.8-1.8h-2.1c-0.2,0.5-0.5,0.9-0.8,1.3c-0.3,0.4-0.5,0.8-0.8,1.2
	l-1-0.8c0.2-0.3,0.4-0.6,0.6-0.8c0.2-0.3,0.4-0.7,0.7-1.1c0.2-0.4,0.4-0.8,0.6-1.2c0.2-0.3,0.3-0.6,0.4-1L109.6,3.6z"/>
<path class="st0" d="M68.5,14.3h-7.8v5.1l7.8,0V14.3z M67.2,18.2h-5.1v-2.7h5.1V18.2z"/>
<path class="st0" d="M57.7,4v6.7c0,0.8,0,1.6,0,2.3c0,0.7,0,1.4-0.1,2c0,0.6,0,1.2-0.1,1.6c0,0.5-0.1,0.8-0.1,1.1
	c-0.1,0.8-0.3,1.5-0.5,2.2c-0.3,0.7-0.6,1.5-1.1,2.1l1.1,1c0.5-0.7,0.8-1.5,1.2-2.3c0.3-0.8,0.5-1.7,0.6-2.6
	c0.2-1.1,0.2-2.1,0.3-3.2c0-1.2,0.1-2.6,0.1-4.2V5.2h11.4v15.5c0,0.2,0,0.4-0.1,0.6c-0.1,0.1-0.3,0.2-0.8,0.2c-0.3,0-0.5,0-0.8,0
	c-0.3,0-0.5-0.1-0.8-0.1l0.3,1.4c0.2,0,0.5,0,0.8,0.1c0.3,0,0.6,0,0.8,0c0.3,0,0.6,0,0.9-0.1c0.2,0,0.4-0.2,0.6-0.3
	c0.2-0.2,0.3-0.4,0.3-0.6c0.1-0.3,0.1-0.6,0.1-1V4H57.7z"/>
<polygon class="st0" points="59.8,11.8 59.8,12.9 69.6,12.9 69.6,11.8 65.4,11.8 65.4,9.3 68.9,9.3 68.9,8.1 65.4,8.1 65.4,6.1 
	64.1,6.1 64.1,8.1 60.5,8.1 60.5,9.3 64.1,9.3 64.1,11.8 "/>
<path class="st0" d="M33.9,3.8v18.7l15.8,0V3.8H33.9z M48.4,21.3H35.3V5h13.2V21.3z"/>
<path class="st0" d="M40.7,18.9L39.9,18c-0.6,0.3-1.2,0.6-1.8,0.9c-0.7,0.3-1.5,0.5-2.2,0.6l0.6,1.1C38,20.3,39.4,19.7,40.7,18.9z"
	/>
<path class="st0" d="M46.9,10.5H36.8V18h10.1V10.5z M45.6,17h-7.5v-1.2h7.5V17z M45.6,14.8h-7.5v-1.2h7.5V14.8z M45.6,12.6h-7.5
	v-1.2h7.5V12.6z"/>
<path class="st0" d="M46.1,6.3h-8.5v3.2h8.5L46.1,6.3z M44.8,8.5h-5.9V7.3h5.9L44.8,8.5z"/>
<path class="st0" d="M45.6,18.8c-0.4-0.1-0.7-0.3-1-0.4c-0.3-0.1-0.6-0.3-0.9-0.4L43,18.9c0.3,0.2,0.6,0.4,0.9,0.5
	c0.3,0.2,0.7,0.3,1,0.5c0.4,0.1,0.7,0.3,1.1,0.4s0.7,0.2,1,0.3l0.6-1.1c-0.4-0.1-0.7-0.2-1-0.3C46.3,19.1,45.9,19,45.6,18.8z"/>
<path class="st0" d="M19.3,20.3c0,0.8-0.1,1.6-0.3,2.4c-0.1,0.5-0.4,1-0.8,1.3c-0.3,0.3-0.7,0.6-1.2,0.7C16.5,24.9,16,25,15.4,25
	c-1,0.1-1.9-0.3-2.7-0.9c-0.8-0.9-1.1-2-1-3.2V3.8H8.5v16c0,0.8,0,1.6-0.2,2.4c-0.2,0.6-0.5,1.2-0.9,1.6c-0.5,0.5-1.2,0.8-1.9,1
	c-1,0.2-2,0.2-2.9,0.2v-2.8c0.5,0,1,0,1.6-0.1c0.4-0.1,0.8-0.2,1.1-0.5c0.4-0.6,0.7-1.4,0.6-2.2V3.8H1.3V1h17.6v2.8h-4.4v16.4
	c-0.1,0.5,0,1.1,0.2,1.6c0.2,0.3,0.6,0.4,1,0.4c0.4,0,0.8-0.2,1.1-0.5c0.2-0.5,0.4-1,0.4-1.5L19.3,20.3z"/>
</svg>
